<?xml version="1.0" standalone="no"?>
<!DOCTYPE svg PUBLIC "-//W3C//DTD SVG 20010904//EN"
 "http://www.w3.org/TR/2001/REC-SVG-20010904/DTD/svg10.dtd">
<svg version="1.0" xmlns="http://www.w3.org/2000/svg"
 width="2000.000000pt" height="2000.000000pt" viewBox="0 0 2000.000000 2000.000000"
 preserveAspectRatio="xMidYMid meet">

<g transform="translate(0.000000,2000.000000) scale(0.100000,-0.100000)"
fill="#000000" stroke="none">
<path d="M13990 18125 l0 -505 35 0 35 0 0 505 0 505 -35 0 -35 0 0 -505z"/>
<path d="M14140 18125 l0 -505 730 0 730 0 -2 -7617 -3 -7618 -727 -3 -728 -2
0 -505 0 -506 1023 3 1022 3 65 22 c116 40 217 120 283 225 9 15 28 61 42 102
l25 75 0 8190 c0 5941 -3 8205 -11 8243 -39 186 -201 348 -387 387 -37 8 -365
11 -1057 11 l-1005 0 0 -505z"/>
<path d="M13990 1875 l0 -505 35 0 35 0 0 505 0 505 -35 0 -35 0 0 -505z"/>
</g>
</svg>
