<svg xmlns="http://www.w3.org/2000/svg" viewBox="0 0 24 24" fill="none" stroke="#2563EB" stroke-width="2" stroke-linecap="round" stroke-linejoin="round">
  <path d="M14 2H6a2 2 0 0 0-2 2v16a2 2 0 0 0 2 2h12a2 2 0 0 0 2-2V8z" />
  <polyline points="14 2 14 8 20 8" />
  <line x1="16" y1="13" x2="8" y2="13" />
  <line x1="16" y1="17" x2="8" y2="17"/>
  <!-- AI sparkle icon integrated inside -->
  <path d="M7 7h1v1H7z" fill="#2563EB" opacity="0.8" />
  <path d="M18 13a1 1 0 0 0 1-1 1 1 0 0 0 1 1 1 1 0 0 0-1 1 1 1 0 0 0-1-1z" fill="#2563EB" />
  <path d="M18 19a1.5 1.5 0 0 0 1.5-1.5A1.5 1.5 0 0 0 21 16a1.5 1.5 0 0 0-1.5-1.5A1.5 1.5 0 0 0 18 13a1.5 1.5 0 0 0-1.5 1.5A1.5 1.5 0 0 0 15 16a1.5 1.5 0 0 0 1.5 1.5A1.5 1.5 0 0 0 18 19z" fill="#2563EB" stroke="none" />
</svg>
